<mxfile host="app.diagrams.net" modified="2024-06-21T15:52:14.106Z" agent="Mozilla/5.0 (Windows NT 10.0; Win64; x64) AppleWebKit/537.36 (KHTML, like Gecko) Chrome/125.0.0.0 Safari/537.36" etag="WZmum0RtDHEfR8yM6wjU" version="24.6.0" type="github">
  <diagram name="Page-1" id="e7e014a7-5840-1c2e-5031-d8a46d1fe8dd">
    <mxGraphModel dx="521" dy="607" grid="1" gridSize="10" guides="1" tooltips="1" connect="1" arrows="1" fold="1" page="1" pageScale="1" pageWidth="1169" pageHeight="826" background="none" math="0" shadow="0">
      <root>
        <mxCell id="0" />
        <mxCell id="1" parent="0" />
        <mxCell id="RBE5U1ZwNRZ0v0wBDpUg-49" style="edgeStyle=none;curved=1;rounded=0;orthogonalLoop=1;jettySize=auto;html=1;fontSize=12;startSize=8;endSize=8;" edge="1" parent="1" source="RBE5U1ZwNRZ0v0wBDpUg-54">
          <mxGeometry relative="1" as="geometry">
            <mxPoint x="670" y="295" as="targetPoint" />
          </mxGeometry>
        </mxCell>
        <mxCell id="RBE5U1ZwNRZ0v0wBDpUg-41" value="User" style="swimlane;fontStyle=1;align=center;verticalAlign=top;childLayout=stackLayout;horizontal=1;startSize=26;horizontalStack=0;resizeParent=1;resizeParentMax=0;resizeLast=0;collapsible=1;marginBottom=0;whiteSpace=wrap;html=1;" vertex="1" parent="1">
          <mxGeometry x="450" y="220" width="100" height="150" as="geometry" />
        </mxCell>
        <mxCell id="RBE5U1ZwNRZ0v0wBDpUg-42" value="- user_id: int&lt;div&gt;- name: str&lt;/div&gt;&lt;div&gt;- email:str&lt;/div&gt;&lt;div&gt;- password: str&lt;/div&gt;" style="text;strokeColor=none;fillColor=none;align=left;verticalAlign=top;spacingLeft=4;spacingRight=4;overflow=hidden;rotatable=0;points=[[0,0.5],[1,0.5]];portConstraint=eastwest;whiteSpace=wrap;html=1;" vertex="1" parent="RBE5U1ZwNRZ0v0wBDpUg-41">
          <mxGeometry y="26" width="100" height="64" as="geometry" />
        </mxCell>
        <mxCell id="RBE5U1ZwNRZ0v0wBDpUg-43" value="" style="line;strokeWidth=1;fillColor=none;align=left;verticalAlign=middle;spacingTop=-1;spacingLeft=3;spacingRight=3;rotatable=0;labelPosition=right;points=[];portConstraint=eastwest;strokeColor=inherit;" vertex="1" parent="RBE5U1ZwNRZ0v0wBDpUg-41">
          <mxGeometry y="90" width="100" height="8" as="geometry" />
        </mxCell>
        <mxCell id="RBE5U1ZwNRZ0v0wBDpUg-44" value="+ register()&lt;div&gt;+ login()&lt;/div&gt;&lt;div&gt;+ logout()&lt;/div&gt;" style="text;strokeColor=none;fillColor=none;align=left;verticalAlign=top;spacingLeft=4;spacingRight=4;overflow=hidden;rotatable=0;points=[[0,0.5],[1,0.5]];portConstraint=eastwest;whiteSpace=wrap;html=1;" vertex="1" parent="RBE5U1ZwNRZ0v0wBDpUg-41">
          <mxGeometry y="98" width="100" height="52" as="geometry" />
        </mxCell>
        <mxCell id="RBE5U1ZwNRZ0v0wBDpUg-50" value="Volunteer" style="swimlane;fontStyle=1;align=center;verticalAlign=top;childLayout=stackLayout;horizontal=1;startSize=26;horizontalStack=0;resizeParent=1;resizeParentMax=0;resizeLast=0;collapsible=1;marginBottom=0;whiteSpace=wrap;html=1;" vertex="1" parent="1">
          <mxGeometry x="670" y="251" width="160" height="88" as="geometry" />
        </mxCell>
        <mxCell id="RBE5U1ZwNRZ0v0wBDpUg-51" value="- volunteer_id: int&lt;div&gt;- skills: list&lt;/div&gt;&lt;div&gt;- avalability: str&lt;/div&gt;" style="text;strokeColor=none;fillColor=none;align=left;verticalAlign=top;spacingLeft=4;spacingRight=4;overflow=hidden;rotatable=0;points=[[0,0.5],[1,0.5]];portConstraint=eastwest;whiteSpace=wrap;html=1;" vertex="1" parent="RBE5U1ZwNRZ0v0wBDpUg-50">
          <mxGeometry y="26" width="160" height="54" as="geometry" />
        </mxCell>
        <mxCell id="RBE5U1ZwNRZ0v0wBDpUg-52" value="" style="line;strokeWidth=1;fillColor=none;align=left;verticalAlign=middle;spacingTop=-1;spacingLeft=3;spacingRight=3;rotatable=0;labelPosition=right;points=[];portConstraint=eastwest;strokeColor=inherit;" vertex="1" parent="RBE5U1ZwNRZ0v0wBDpUg-50">
          <mxGeometry y="80" width="160" height="8" as="geometry" />
        </mxCell>
        <mxCell id="RBE5U1ZwNRZ0v0wBDpUg-55" value="" style="edgeStyle=none;curved=1;rounded=0;orthogonalLoop=1;jettySize=auto;html=1;fontSize=12;startSize=8;endSize=8;" edge="1" parent="1" source="RBE5U1ZwNRZ0v0wBDpUg-41" target="RBE5U1ZwNRZ0v0wBDpUg-54">
          <mxGeometry relative="1" as="geometry">
            <mxPoint x="670" y="295" as="targetPoint" />
            <mxPoint x="550" y="295" as="sourcePoint" />
          </mxGeometry>
        </mxCell>
        <mxCell id="RBE5U1ZwNRZ0v0wBDpUg-54" value="&lt;font style=&quot;font-size: 10px;&quot;&gt;inheritance&lt;/font&gt;" style="text;html=1;align=center;verticalAlign=middle;resizable=0;points=[];autosize=1;strokeColor=none;fillColor=none;fontSize=16;" vertex="1" parent="1">
          <mxGeometry x="569" y="270" width="70" height="30" as="geometry" />
        </mxCell>
      </root>
    </mxGraphModel>
  </diagram>
</mxfile>
